<svg width="12" height="12" viewBox="0 0 12 12" fill="none" xmlns="http://www.w3.org/2000/svg">
<path d="M1.12984 11.8366C0.814115 11.8366 0.546875 11.7272 0.328125 11.5084C0.109375 11.2897 0 11.0224 0 10.7067V2.34141C0 2.02568 0.109375 1.75844 0.328125 1.53969C0.546875 1.32094 0.814115 1.21156 1.12984 1.21156H6.53969L5.60219 2.14906H1.12984C1.08172 2.14906 1.03766 2.16911 0.997656 2.20922C0.957552 2.24922 0.9375 2.29328 0.9375 2.34141V10.7067C0.9375 10.7548 0.957552 10.7989 0.997656 10.8389C1.03766 10.879 1.08172 10.8991 1.12984 10.8991H9.49516C9.54328 10.8991 9.58734 10.879 9.62734 10.8389C9.66745 10.7989 9.6875 10.7548 9.6875 10.7067V6.19469L10.625 5.25719V10.7067C10.625 11.0224 10.5156 11.2897 10.2969 11.5084C10.0781 11.7272 9.81089 11.8366 9.49516 11.8366H1.12984ZM3.75 8.08656V5.94109L9.41234 0.278906C9.50922 0.181927 9.61578 0.111197 9.73203 0.0667181C9.84818 0.0222389 9.96635 0 10.0866 0C10.2092 0 10.3269 0.0222389 10.4398 0.0667181C10.5529 0.111197 10.6558 0.179895 10.7487 0.272812L11.5336 1.05531C11.6241 1.15229 11.6936 1.25927 11.7422 1.37625C11.7906 1.49323 11.8148 1.61182 11.8148 1.73203C11.8148 1.85224 11.7942 1.9688 11.753 2.08172C11.7117 2.19474 11.6426 2.29969 11.5456 2.39656L5.86531 8.08656H3.75ZM4.6875 7.14906H5.46641L9.36172 3.25359L8.97234 2.86422L8.55531 2.46281L4.6875 6.33062V7.14906Z" fill="#646864"/>
</svg>
