<svg width="15" height="15" viewBox="0 0 15 15" fill="none" xmlns="http://www.w3.org/2000/svg">
<path d="M14.0702 7.49999L14.8992 6.06727C14.9988 5.89489 15.0259 5.69001 14.9745 5.49766C14.9231 5.30531 14.7975 5.14124 14.6251 5.04154L13.1909 4.21254V2.56056C13.1909 2.3614 13.1118 2.17041 12.971 2.02959C12.8301 1.88877 12.6391 1.80965 12.44 1.80965H10.7888L9.96051 0.376181C9.86098 0.203722 9.69702 0.0778552 9.50471 0.0262609C9.40943 0.000731426 9.31006 -0.00577705 9.21227 0.00710715C9.11447 0.0199913 9.02018 0.0520159 8.93477 0.101351L7.50054 0.930347L6.06631 0.1006C5.89384 0.00102887 5.68888 -0.0259545 5.49652 0.0255858C5.30416 0.0771261 5.14015 0.202969 5.04057 0.375431L4.21157 1.80965H2.56033C2.36118 1.80965 2.17018 1.88877 2.02936 2.02959C1.88854 2.17041 1.80942 2.3614 1.80942 2.56056V4.21179L0.375193 5.04079C0.289761 5.09016 0.214897 5.15588 0.15488 5.2342C0.0948631 5.31251 0.0508702 5.40189 0.0254161 5.49723C-3.8097e-05 5.59256 -0.0064543 5.69197 0.00653414 5.78978C0.0195226 5.88759 0.0516609 5.98188 0.101112 6.06727L0.930112 7.49999L0.101112 8.93271C0.00198426 9.10525 -0.0249108 9.30998 0.0262908 9.50227C0.0774924 9.69455 0.202638 9.8588 0.374442 9.95919L1.80867 10.7882V12.4394C1.80867 12.6386 1.88778 12.8296 2.02861 12.9704C2.16943 13.1112 2.36043 13.1903 2.55958 13.1903H4.21157L5.04057 14.6245C5.10705 14.7382 5.20197 14.8326 5.31599 14.8984C5.43001 14.9642 5.5592 14.9992 5.69085 15C5.82151 15 5.95142 14.9655 6.06706 14.8986L7.49979 14.0696L8.93402 14.8986C9.10639 14.9983 9.31128 15.0254 9.50363 14.974C9.69598 14.9226 9.86005 14.7969 9.95975 14.6245L10.788 13.1903H12.4392C12.6384 13.1903 12.8294 13.1112 12.9702 12.9704C13.111 12.8296 13.1901 12.6386 13.1901 12.4394V10.7882L14.6244 9.95919C14.7098 9.90982 14.7847 9.8441 14.8447 9.76578C14.9047 9.68746 14.9487 9.59808 14.9742 9.50275C14.9996 9.40742 15.006 9.30801 14.993 9.2102C14.9801 9.11239 14.9479 9.0181 14.8985 8.93271L14.0702 7.49999ZM5.62252 3.73797C5.92135 3.73807 6.2079 3.85687 6.41913 4.06825C6.63037 4.27962 6.74898 4.56625 6.74888 4.86507C6.74878 5.1639 6.62998 5.45045 6.4186 5.66168C6.20723 5.87291 5.9206 5.99153 5.62177 5.99143C5.32294 5.99133 5.03639 5.87252 4.82516 5.66115C4.61393 5.44978 4.49531 5.16315 4.49541 4.86432C4.49551 4.5655 4.61432 4.27895 4.82569 4.06772C5.03706 3.85648 5.32369 3.73787 5.62252 3.73797ZM5.84779 10.9466L4.82516 10.9167L4.64635 10.0463L9.15178 4.03908H10.1744L10.3532 4.93941L5.84779 10.9466ZM9.37705 11.247C9.22909 11.2469 9.08258 11.2177 8.9459 11.1611C8.80921 11.1044 8.68503 11.0214 8.58044 10.9167C8.47585 10.8121 8.39289 10.6878 8.33632 10.5511C8.27974 10.4144 8.25064 10.2679 8.25069 10.1199C8.25074 9.97192 8.27993 9.82542 8.3366 9.68874C8.39327 9.55205 8.47631 9.42787 8.58097 9.32328C8.68563 9.21869 8.80987 9.13574 8.94659 9.07916C9.08331 9.02258 9.22984 8.99348 9.3778 8.99353C9.67663 8.99363 9.96318 9.11244 10.1744 9.32381C10.3856 9.53518 10.5043 9.82181 10.5042 10.1206C10.5041 10.4195 10.3853 10.706 10.1739 10.9172C9.96251 11.1285 9.67588 11.2471 9.37705 11.247Z" fill="white"/>
</svg>
